<?xml version="1.0" encoding="UTF-8"?>
<svg width="300" height="300"  clip-rule="evenodd" fill-rule="evenodd" stroke-miterlimit="10" version="1.1" viewBox="0 0 300 300" xml:space="preserve" xmlns="http://www.w3.org/2000/svg"><rect x=".3178" y=".6356" width="299" height="299" fill="#fff" fill-rule="evenodd"/><path transform="translate(42.34 25.14) scale(5.011)" d="m0 46.26 5.21-9.86 2.04-3.75 1.25-1.92 2.52-4.42 2.03-.46 2.625-1.313 1.335-1.177 1.13-1.25.57-.71 1.13-2.01.57-3.09 2.83-1.79 1.48-1.05 1.13-.87 1.129-1.39 1.931-3.04 1.25-.79 1.13-2.41.8-1.56.34-.57.56-.56 1.02-.91L36.96 0h.45l.26.42-.14.57-2.381 7.94.111 2.07L0 46.26Z" fill="#3360b4"/><path transform="translate(296.9 294.3) scale(5.011)" d="M0-58.14V0h-58.39L0-58.14Z" fill="#ef4136"/><g fill="#3360b4"><path transform="translate(59.93 251.9) scale(5.011)" d="M0-.92v2.84L3.55-.12v-3.891l-.15-.08h-.34l-.098.08H2.84l-.43.57h-.14v-.2L6.95-8.17v.34h-.14v.109l-.34.311-.09.26-.25.11-.69 12.809.37.571.57.229.09-.12.11.12.11.2v.25l-4.76.231-.249-.104.019-.237v-.14l.8-.089.48-.481L3.4.67-.11 2.369"/><path transform="translate(59.38 263.1) scale(5.011)" d="M0 .139-.23 4.11l.68.569h.46l.11.11v.231l-4.88.08v-.08h.46l.34-.231h.11l.37-.339.57-5.441-.15-.14h-.11l-.11.14-.46.341-.22.22-.23.12v.109-.229l4.76-4.531v.231l-.109.054-.111.135-.069.067-.731.643"/><path transform="translate(186.7 289.9) scale(5.011)" d="M0-33.79-4.65 0h-.46l-4.08-23.5-.08-.09-.71.09v-.431l4.42-4.309v.68l-.68.66-.45 2.07.11.109 2.61 14.261 2.07-18.91-.14-.68-.12-.25h-.31l-.71.56v-.76L0-33.79Z"/><path transform="translate(286.1 283.3) scale(5.011)" d="m0-48.82.45.94.12.91.22.79v7.94l-.11 2.26H.57v.12l-.12-1.7-.08-1.36v-1.39l-.14-1.22L0-42.78l-.2-.94-.14-.87-.23-.68-.2-.57-.14-.57-.34-.34-.08-.22-.569-.15-.371.15-.339.22-.221.2-.12.37-.23.45-.219.46-.341.56-.23 1.25-.34 1.45-.339 1.7-.231.82-.11 1.02-.23.91-.08 1.13-.139 1.02-.121 2.61-.11 2.83-.11 2.84-.09 3.17.09 2.92.11 2.84.11 2.75.121 2.6.139 2.39.2 1.13.11 1.13.11.91.231.91.339 1.581.451 1.589.119.31.341.37.219.12.35.22h.45l.57-.71.56-.99.23-.45.34-1.25.23-.91.25-.929.091-.991.219-1.14.26-1.13.2-1.279v4.679l-.2.991L.23-5.16 0-4.12l-.2.91-.25.68-.23.771-.23.559-.22.57-.2.48-.14.34-.34.32-.23.25-.23.231-.339.08-.221.139-.35.12-.42-.12-.259-.139L-4.17.87l-.479-.36-.231-.43-.34-.45-.34-.679-.22-.571-.34-.79-.23-1.05-.23-1-.34-1.02-.22-1.13-.23-1.25-.109-1.13-.231-1.36-.229-2.75-.201-2.69-.14-2.98-.11-2.83v-3.04l.11-2.95.23-3.09.23-2.83.25-1.45.2-1.47.23-1.36.22-1.39.34-1.33.23-1.14.34-1.13.23-1.02.341-.91.339-1.02.371-1.02.419-.68.23-.68.34-.71.341-.56.369-.43.2-.14.221-.2h1.279l.31.2.25.14.32.34.25.23.091.22.109.2Z"/></g><path transform="translate(238.9 289.4) scale(5.011)" d="M0-21.89v.45l-.109 1.93v1.93l-.12 1.93-.111 1.81-.229 1.7-.221 1.79-.199 1.609-.37 2.161-.34 1.7-.431 1.469-.559 1.25-.491 1.021-.559.569-.651.421-.57.26-.569-.26-.571-.31-.56-.571-.48-.819-.46-.99-.57-1.28-.34-1.44-.34-1.82-.219-1.13-.231-1.36-.34-1.47-.23-1.28v-1.451l-.109-1.469v-1.47l-.081-1.7v-1.71l.081-1.58h2.5v6.69l.25 2.04v1.779l.2 1.621.109 1.589.26 1.471.08 1.25.23.79.111.65.139.709.321.571.25.34.09.23.219.22.26.12h.2l.22-.12.15-.22.191-.15.119-.191.104-.313.109-.324.128-.382.219-1.14.26-1.61.2-1.79.22-2.18.151-2.36v-5.66l.08-3.18-.08-.45L0-21.89Z" fill="#231f20"/><g fill="#3360b4"><path transform="translate(238.9 206.4) scale(5.011)" d="M0-4.99v-1.93l-.109-2.26-.12-2.05-.111-2.15-.09-1.81-.139-.8-.111-.9-.11-.71-.12-.77-.079-.79-.151-.71-.11-.31.11.31.151.71.079.79.12.77.11.71.111.9.139.8.09 1.81.111 2.15.12 2.05L0-6.92v2.04l-.109 1.93v1.93L-.229.91-.34 2.72l-.229 1.7-.221 1.79-.199 1.61-.37 2.16-.34 1.7-.431 1.47-.559 1.25-.491 1.02-.559.569-.651.421-.57.26-.569-.26-.571-.31-.56-.57-.48-.82-.46-.99-.57-1.28-.34-1.44-.34-1.82-.219-1.13-.443-1.995-.337-1.995-.122-1.63-.008-1.41V-.45l-.081-1.7v-1.71l.081-1.7.109-1.701V-8.73l.23-.79v-.8l.23-.91.11-.79.111-.68.12-.45-.12.45-.111.68-.11.79-.23.91v.8l-.23.79v1.469l-.109 1.701-.081 1.7v.34h2.581V-11l.25-2.63.2-1.14.109-1.22.26-1.13.2-1.05.221-.88.34-.68.229-.79.231-.49.679-.65-.679.8-.231.34-.229.79-.34.68-.221.88-.2 1.05-.26 1.13-.109 1.22-.2 1.14-.25 2.63V1.25l.25 2.04v1.78l.2 1.62.109 1.59.26 1.47.08 1.25.23.79.111.65.139.71.321.57.25.34.309.45.26.12h.2l.22-.12.15-.22.191-.15.119-.191.341-1.019.219-1.14.26-1.61.2-1.79.22-2.18.151-2.36v-5.66l.08-3.18-.08-1.93v-3.4l-.151-1.47v-2.61l-.22-2.07-.12-1.56-.219-1.27-.231-.88-.2-.83.2.83.231.88.219 1.27.12 1.56.22 2.07v2.61l.151 1.47v3.4l.08 1.93-.08 1.56L0-4.99Z"/><path transform="translate(210 192.5) scale(5.011)" d="m0-19.567-.32.46-.481.87-.449.94-.45 1.02-.46 1.25-.42 1.33-.37 1.5-.12.68-.22.8-.12.79-.111.68-.11.79-.229.91-.231 1.59v1.47l-.109 1.7-.08 2.04.134.132L-1.7 0v-8.227l.25-2.63.2-1.14.109-1.22.26-1.13.2-1.05.221-.88.34-.68.229-.79.231-.49-.231-.42-.109-.91Z"/><path transform="translate(238.9 93.79) scale(5.011)" d="M0 17.592v-2.04l-.109-2.261-.12-2.05-.111-2.149-.09-1.811-.139-.799-.111-.9-.11-.71-.12-.77-.079-.79-.151-.71-.219-.651-.201-.569-.259-1.13-.311-.681-.559-.569-.371-.37-.46-.081-.56.081-.31.48-.259.459-.451 1.701.71-.23h.191l.369.57.2.68.231.88.219 1.27.12 1.56.22 2.069v2.61l.151 1.471v6.889l.649-.09.48-.339.42-.14.571-.08.569-.8Z"/><path transform="translate(210 93.59) scale(5.011)" d="m0 .17.56-.79 1.139-.71-.83 2.491L.34 1.5l-.46-.42L0 .17Z"/><path transform="translate(124.1 219.5) scale(5.011)" d="m0 6.12-3.03 1.021-.71 4.759.34.571.46.339.22.11.12.12v.34l-3.18.11-.08-.11v-.46l.56-.34L-.76-7.17h.08v-.2L2.16 4.16h-2.5L-1.58-.569-2.83 5.78l.45-.11.57-.23 1.602-.685L0 6.12Z"/><path transform="translate(134.5 286.5) scale(5.011)" d="m0-9.64 1.45 8.28.25.22.09.23h.23v.77L-2.41 0v-.71l.91-.31v-.34l.23-.34-.43-4.31-.14-.68L0-9.64Z"/><path transform="translate(125.3 239.9) scale(5.011)" d="m0 2.61-.091-.561-.249-.009L-.75.927l.333-.104L-.57.08 1.84 0 0 2.61Z"/></g><path transform="matrix(0 5.011 5.011 0 192.9 12.21)" d="M.74-.73a.71.71 0 0 1 .731.73c0 .4-.311.74-.731.74C.34.74 0 .4 0 0c0-.419.34-.73.74-.73" fill="#231f20" fill-rule="nonzero"/><path transform="matrix(0 5.011 5.011 0 206.6 5.552)" d="M.73-.74c.43 0 .74.31.74.739A.73.73 0 0 1 .73.73C.34.73 0 .39 0-.001A.73.73 0 0 1 .73-.74" fill="#231f20" fill-rule="nonzero"/><g fill="none" stroke="#231f20"><g stroke-width=".45px"><path transform="translate(216.9 9.209) scale(5.011)" d="m0 6.24.19-1.81L.31 0"/><path transform="translate(223 9.208) scale(5.011)" d="m0 5.87-.08-1.13V.12L0 0"/><path transform="translate(144 25.14) scale(5.011)" d="m0 16.44 2.95-1.93 1.48-1.05 1.13-.87 1.129-1.39L8.62 8.16l1.25-.79L11 4.96l.8-1.56.34-.57.56-.56 1.02-.91L16.67 0h.45l.26.42v.57l-2.521 7.85.25 2.16-.139-.46"/><path transform="translate(188.5 112.8) scale(5.011)" d="M0-9.44c-3.601-2.27-5.45-3.34-9.22-5.36-2.69-1.41-3.97-2.41-6.91-3.14-2.98-.71-4.31-1.05-7.32-.71-1.95.25-3.48.82-4.9 2.15-1.53 1.45-2.52 2.01-3.66 3.77-1.44 2.21-2.32 3.43-2.72 6.01-.54 3.2-.76 5.13.4 8.14.68 1.47 1.39 2.12 2.58 3.06 2.29 1.84 3.71 2.46 6.55 3.31 2.97.91 4.67 1.76 7.71 1.03 5.07-1.22 8.07-4.65 8.61-9.87"/><path transform="translate(42.9 157) scale(5.011)" d="m0 19.84 1.28-2.64 3.82-7.11 2.04-3.75 1.25-1.92L10.91 0"/></g><g stroke-linejoin="bevel" stroke-width=".2px"><path transform="scale(-5.011 5.011) rotate(55.82 -32.89 -25.26)" d="m-3.738-1.98h4.787"/><path transform="translate(171.9 76.26) scale(5.011)" d="m0-4.19-.569 1.02L-2.609 0"/><path transform="scale(-5.011 5.011) rotate(62.6 -27.02 -20.27)" d="M-2.697-1.64H.997"/><path transform="translate(131 47.14) scale(5.011)" d="m0-2.69-.68 1.25-.8 1.44"/><path transform="matrix(-5.011 0 0 5.011 113.9 37.62)" d="M-.8 0H0"/><path transform="translate(91.2 40.48) scale(5.011)" d="m0-1.7-4.2.68L-6.46 0"/><path transform="translate(25.86 59.82) scale(5.011)" d="m0-1.48 1.27.8 1 .68"/><path transform="matrix(4.206 2.724 2.724 -4.206 23.78 59.95)" d="M-.185-.625h2.3"/><path transform="scale(-5.011 5.011) rotate(-58.06 6.9 16.71)" d="M-.694.385h.908"/><path transform="scale(-5.011 5.011) rotate(-16.45 53.68 38.41)" d="M-1.971.285H.041"/><path transform="matrix(-5.011 0 0 5.011 44.6 97.3)" d="M-1.25 0H0"/><path transform="translate(88.34 79.66) scale(5.011)" d="m0-.9-1.7.22-1.13.43-.57.25"/><path transform="scale(-5.011 5.011) rotate(-40.82 11.3 34.4)" d="M-.766.285h.872"/><path transform="translate(123.6 86.53) scale(5.011)" d="m0 2.15.68-.57L2.84 0"/><path transform="scale(5.011 -5.011) rotate(35.48 46.82 29.91)" d="M-.313.98h3.376"/><path transform="scale(-5.011 5.011) rotate(-20.2 40.8 35.35)" d="M-1.291.23H.041"/><path transform="matrix(-5.011 0 0 5.011 44.6 97.3)" d="M-1.25 0H0"/><path transform="scale(-5.011 5.011) rotate(19.72 -72.2 -16.26)" d="M-1.64-.285H.05"/><path transform="scale(-5.011 5.011) rotate(66.57 -27.35 2.56)" d="M-1.142-.75H.492"/><path transform="scale(-5.011 5.011) rotate(70.28 -27.07 2.099)" d="M-1.13-.795H.56"/><path transform="translate(83.78 137.1) scale(5.011)" d="M0-1.59.23-.23 0 0"/><path transform="scale(5.011 -5.011) rotate(-86.04 -4.583 -23.26)" d="M-.742-.795H.852"/><path transform="matrix(3.257 3.808 3.808 -3.257 102.4 125.1)" d="M-.175-.38h1"/><path transform="scale(5.011 -5.011) rotate(-36.94 -25.17 -43.51)" d="M-.157-.47h1.564"/><path transform="scale(5.011 -5.011) rotate(-36.16 -23.58 -44.4)" d="M-.186-.57h1.932"/><path transform="matrix(4.995 .404 .404 -4.995 107.1 110.1)" d="M-.002-.055h1.364"/><path transform="scale(5.011 -5.011) rotate(3.786 333.9 312.7)" d="M-.001.045h1.362"/><path transform="scale(5.011 -5.011) rotate(26.91 53.26 34.54)" d="M-.081.34h1.502"/><path transform="scale(-5.011 5.011) rotate(65.66 -31.14 3.473)" d="M-1.953-1.26H.813"/><path transform="scale(-5.011 5.011) rotate(73.98 -29.08 3.902)" d="M-1.294-.975H.734"/><path transform="translate(91.9 157.5) scale(5.011)" d="m0-1.93.09.11L-.14 0"/><path transform="scale(-5.011 5.011) rotate(80.24 -28.54 2.857)" d="M-1.276-1.075H.906"/><path transform="matrix(0 5.011 5.011 0 115.3 146.4)" d="M-.965-.965h1.93"/><path transform="scale(5.011 -5.011) rotate(-71.46 -6.749 -30.84)" d="M-.612-.85h1.794"/><path transform="scale(5.011 -5.011) rotate(-51.16 -11.28 -40.32)" d="M-.27-.565h1.45"/><path transform="translate(204.2 15.92) scale(5.011)" d="M0 4.67-.31 3.2l-.71-1.25L-2.38 0"/><path transform="scale(-5.011 5.011) rotate(-79.13 -20.01 28.3)" d="m-2.868 2.37h4.826"/><path transform="translate(144 88.18) scale(5.011)" d="M0 3.86c-.2 1.33-1.92 2.13-3.03 1.36-1.62-1.05-.71-2.83-1.62-4.53-.68-1.25-1.3-1.68-2.26-2.73-1.51-1.55-2.87-1.81-4.99-2.04-3.38-.34-6.29 1.96-6.58 5.33-.25 3.01 1.02 5.73 3.97 6.35 2.04.48 3.26.68 5.24 0 1.11-.37 1.25-1.27 1.7-2.38.8-2.01-.28-3.94-2.18-4.99-1.81-.93-3.63-.51-4.99.91-.62.71-.25 1.42 0 2.27.29.82.54.96.8 1.1.85.57 1.44.54 2.26-.08.54-.4.97-.94.71-1.59-.25-.54-1.1-.68-1.5-.26"/></g></g></svg>
