<?xml version="1.0" encoding="UTF-8"?>
<svg width="337.9" height="151.5" version="1.1" viewBox="0 0 337.9 151.5" xmlns="http://www.w3.org/2000/svg">
 <g transform="matrix(1.333 0 0 -1.333 0 151.5)">
  <g transform="scale(.1)">
   <g fill="#2ba543">
    <path d="m1007 762.3v-33.47h-87.48v-41.84h75.82v-30.93h-75.82v-74.8h-39.81v181h127.3"/>
    <path d="m1065 648.9c1.78-7.187 4.61-13.65 8.5-19.39 3.88-5.754 8.95-10.36 15.21-13.82 6.25-3.465 13.86-5.196 22.82-5.196s16.57 1.731 22.82 5.196c6.25 3.461 11.32 8.07 15.21 13.82 3.89 5.742 6.73 12.21 8.5 19.39 1.78 7.184 2.67 14.58 2.67 22.19 0 7.941-0.89 15.63-2.67 23.07-1.77 7.438-4.61 14.07-8.5 19.9-3.89 5.832-8.96 10.48-15.21 13.95-6.25 3.457-13.86 5.195-22.82 5.195s-16.57-1.738-22.82-5.195c-6.26-3.469-11.33-8.122-15.21-13.95-3.89-5.828-6.72-12.46-8.5-19.9-1.77-7.445-2.66-15.13-2.66-23.07 0-7.609 0.89-15 2.66-22.19zm-36.39 59.84c4.06 11.58 9.89 21.69 17.5 30.3 7.61 8.625 16.95 15.38 28.02 20.29 11.07 4.895 23.54 7.352 37.4 7.352 14.03 0 26.54-2.457 37.53-7.352 10.99-4.906 20.28-11.66 27.89-20.29 7.6-8.617 13.44-18.72 17.5-30.3 4.05-11.57 6.08-24.13 6.08-37.65 0-13.19-2.03-25.48-6.08-36.9-4.06-11.41-9.9-21.34-17.5-29.79-7.61-8.457-16.9-15.09-27.89-19.91-10.99-4.816-23.5-7.226-37.53-7.226-13.86 0-26.33 2.41-37.4 7.226-11.07 4.817-20.41 11.45-28.02 19.91-7.61 8.45-13.44 18.38-17.5 29.79-4.05 11.41-6.08 23.7-6.08 36.9 0 13.52 2.03 26.07 6.08 37.65"/>
    <path d="m1360 595.1c-13.7-11.91-32.62-17.87-56.79-17.87-24.52 0-43.49 5.914-56.93 17.75-13.44 11.83-20.16 30.09-20.16 54.77v112.6h39.81v-112.6c0-4.906 0.42-9.723 1.27-14.45 0.84-4.73 2.62-8.918 5.32-12.56 2.7-3.636 6.47-6.59 11.28-8.871 4.83-2.285 11.29-3.422 19.41-3.422 14.19 0 23.99 3.168 29.41 9.508 5.4 6.336 8.12 16.27 8.12 29.79v112.6h39.8v-112.6c0-24.52-6.84-42.72-20.54-54.65"/>
    <path d="m1455 762.3 75.57-121.5h0.5v121.5h37.27v-181h-39.81l-75.31 121.2h-0.51v-121.2h-37.26v181h39.55"/>
    <path d="m1678 614.8c5.74 0 11.32 0.926 16.73 2.793 5.41 1.851 10.24 4.937 14.46 9.25 4.22 4.312 7.61 9.933 10.14 16.87 2.54 6.922 3.8 15.38 3.8 25.36 0 9.125-0.88 17.36-2.66 24.72-1.77 7.352-4.68 13.65-8.75 18.89-4.05 5.238-9.41 9.254-16.09 12.05-6.68 2.789-14.92 4.179-24.73 4.179h-28.4v-114.1zm2.79 147.6c11.67 0 22.52-1.863 32.58-5.578 10.05-3.727 18.76-9.301 26.13-16.74 7.34-7.442 13.08-16.74 17.23-27.9 4.15-11.15 6.22-24.26 6.22-39.3 0-13.19-1.7-25.36-5.07-36.52-3.38-11.16-8.5-20.79-15.35-28.91-6.84-8.113-15.38-14.5-25.61-19.14-10.23-4.653-22.27-6.973-36.13-6.973h-78.09v181h78.09"/>
    <path d="m1886 651.3-22.81 66.43h-0.51l-23.59-66.43zm-2.29 111.1 67.72-181h-41.34l-13.69 40.31h-67.71l-14.2-40.31h-40.05l68.45 181h40.82"/>
    <path d="m1932 728.9v33.47h148.3v-33.47h-54.27v-147.6h-39.81v147.6h-54.26"/>
    <path d="m2104 581.3h39.81v181h-39.81z"/>
    <path d="m2213 648.9c1.78-7.187 4.61-13.65 8.5-19.39 3.89-5.754 8.96-10.36 15.22-13.82 6.25-3.465 13.85-5.196 22.81-5.196s16.57 1.731 22.83 5.196c6.25 3.461 11.32 8.07 15.21 13.82 3.89 5.742 6.72 12.21 8.5 19.39 1.77 7.184 2.66 14.58 2.66 22.19 0 7.941-0.89 15.63-2.66 23.07-1.78 7.438-4.61 14.07-8.5 19.9-3.89 5.832-8.96 10.48-15.21 13.95-6.26 3.457-13.87 5.195-22.83 5.195s-16.56-1.738-22.81-5.195c-6.26-3.469-11.33-8.122-15.22-13.95-3.89-5.828-6.72-12.46-8.5-19.9-1.77-7.445-2.65-15.13-2.65-23.07 0-7.609 0.88-15 2.65-22.19zm-36.38 59.84c4.06 11.58 9.89 21.69 17.5 30.3 7.6 8.625 16.94 15.38 28.02 20.29 11.06 4.895 23.53 7.352 37.39 7.352 14.04 0 26.54-2.457 37.53-7.352 10.98-4.906 20.28-11.66 27.9-20.29 7.6-8.617 13.44-18.72 17.49-30.3 4.05-11.57 6.08-24.13 6.08-37.65 0-13.19-2.03-25.48-6.08-36.9-4.05-11.41-9.89-21.34-17.49-29.79-7.62-8.457-16.92-15.09-27.9-19.91-10.99-4.816-23.49-7.226-37.53-7.226-13.86 0-26.33 2.41-37.39 7.226-11.08 4.817-20.42 11.45-28.02 19.91-7.61 8.45-13.44 18.38-17.5 29.79-4.06 11.41-6.1 23.7-6.1 36.9 0 13.52 2.04 26.07 6.1 37.65"/>
    <path d="m2416 762.3 75.56-121.5h0.51v121.5h37.27v-181h-39.81l-75.3 121.2h-0.5v-121.2h-37.29v181h39.56"/>
   </g>
   <g fill="#3871c1">
    <path d="m904.2 865.4c1.543-6.312 4.008-12 7.406-17.04 3.391-5.046 7.816-9.089 13.28-12.13 5.453-3.047 12.1-4.567 19.91-4.567 7.821 0 14.46 1.52 19.91 4.567 5.454 3.043 9.883 7.086 13.28 12.13 3.394 5.043 5.871 10.73 7.418 17.04 1.547 6.309 2.316 12.8 2.316 19.48 0 6.976-0.769 13.73-2.316 20.27-1.547 6.531-4.024 12.36-7.418 17.48-3.395 5.121-7.824 9.203-13.28 12.25-5.453 3.039-12.09 4.562-19.91 4.562-7.816 0-14.46-1.523-19.91-4.562-5.465-3.047-9.89-7.129-13.28-12.25-3.398-5.121-5.863-10.95-7.406-17.48-1.551-6.536-2.328-13.29-2.328-20.27 0-6.68 0.777-13.17 2.328-19.48zm-31.76 52.55c3.539 10.17 8.637 19.04 15.28 26.62 6.637 7.571 14.78 13.51 24.45 17.81 9.656 4.308 20.54 6.457 32.64 6.457 12.24 0 23.16-2.149 32.75-6.457 9.586-4.305 17.71-10.24 24.34-17.81 6.64-7.574 11.73-16.45 15.27-26.62s5.31-21.19 5.31-33.07c0-11.57-1.77-22.38-5.31-32.4-3.54-10.02-8.63-18.75-15.27-26.17-6.636-7.418-14.76-13.25-24.34-17.48-9.589-4.234-20.51-6.352-32.75-6.352-12.1 0-22.98 2.118-32.64 6.352-9.665 4.23-17.81 10.06-24.45 17.48-6.64 7.421-11.74 16.15-15.28 26.17-3.539 10.02-5.309 20.83-5.309 32.4 0 11.88 1.77 22.9 5.309 33.07"/>
    <path d="m1119 893.2c7.97 0 13.95 1.781 17.93 5.344 3.98 3.562 5.97 9.355 5.97 17.37 0 7.723-1.99 13.33-5.97 16.82-3.98 3.485-9.96 5.231-17.93 5.231h-38.06v-44.76zm12.4 71.93c7.07 0 13.46-1.157 19.14-3.453 5.67-2.301 10.54-5.457 14.6-9.465 4.06-4.004 7.16-8.649 9.29-13.92 2.14-5.278 3.21-10.95 3.21-17.04 0-9.352-1.95-17.45-5.86-24.27s-10.29-12.03-19.14-15.59v-0.449c4.28-1.187 7.82-3.008 10.62-5.453 2.8-2.453 5.09-5.344 6.86-8.684 1.77-3.339 3.06-7.019 3.88-11.02 0.8-4.016 1.35-8.02 1.65-12.03 0.15-2.52 0.29-5.489 0.45-8.903 0.14-3.418 0.4-6.902 0.77-10.47 0.37-3.563 0.95-6.942 1.77-10.13 0.81-3.195 2.02-5.899 3.65-8.125h-34.74c-1.92 5.043-3.09 11.06-3.54 18.04-0.44 6.976-1.11 13.66-2 20.04-1.17 8.308-3.68 14.4-7.51 18.26-3.84 3.855-10.11 5.785-18.81 5.785h-34.75v-62.13h-34.74v159h85.2"/>
    <path d="m1206 806.1h34.74v159h-34.74z"/>
    <path d="m1389 965.1v-29.4h-83.43v-34.07h76.57v-27.18h-76.57v-38.97h85.2v-29.39h-119.9v159h118.2"/>
    <path d="m1449 965.1 65.94-106.7h0.44v106.7h32.53v-159h-34.73l-65.73 106.4h-0.44v-106.4h-32.52v159h34.51"/>
    <path d="m1566 935.7v29.4h129.4v-29.4h-47.34v-129.6h-34.75v129.6h-47.34"/>
    <path d="m1832 965.1v-29.4h-83.42v-34.07h76.56v-27.18h-76.56v-38.97h85.19v-29.39h-119.9v159h118.2"/>
    <path d="m1975 965.1v-29.4h-83.43v-34.07h76.56v-27.18h-76.56v-38.97h85.2v-29.39h-119.9v159h118.2"/>
    <path d="m2073 893.2c7.97 0 13.94 1.781 17.93 5.344 3.98 3.562 5.97 9.355 5.97 17.37 0 7.723-1.99 13.33-5.97 16.82-3.99 3.485-9.96 5.231-17.93 5.231h-38.06v-44.76zm12.4 71.93c7.07 0 13.46-1.157 19.13-3.453 5.67-2.301 10.56-5.457 14.6-9.465 4.06-4.004 7.17-8.649 9.3-13.92 2.14-5.278 3.2-10.95 3.2-17.04 0-9.352-1.95-17.45-5.86-24.27s-10.29-12.03-19.14-15.59v-0.449c4.28-1.187 7.83-3.008 10.62-5.453 2.81-2.453 5.09-5.344 6.86-8.684 1.78-3.339 3.07-7.019 3.89-11.02 0.8-4.016 1.34-8.02 1.65-12.03 0.14-2.52 0.29-5.489 0.44-8.903 0.14-3.418 0.41-6.902 0.78-10.47 0.37-3.563 0.95-6.942 1.77-10.13 0.81-3.195 2.02-5.899 3.65-8.125h-34.74c-1.93 5.043-3.1 11.06-3.55 18.04-0.43 6.976-1.1 13.66-2 20.04-1.17 8.308-3.67 14.4-7.51 18.26-3.83 3.855-10.1 5.785-18.8 5.785h-34.75v-62.13h-34.74v159h85.2"/>
    <path d="m2160 806.1h34.73v159h-34.73z"/>
    <path d="m2260 965.1 65.94-106.7h0.45v106.7h32.53v-159h-34.75l-65.72 106.4h-0.44v-106.4h-32.52v159h34.51"/>
    <path d="m2483 807.3c-7.52-3.188-15.12-4.786-22.79-4.786-12.09 0-22.98 2.118-32.64 6.352-9.67 4.23-17.81 10.06-24.45 17.48-6.64 7.421-11.73 16.15-15.27 26.17-3.54 10.02-5.31 20.83-5.31 32.4 0 11.88 1.77 22.9 5.31 33.07s8.63 19.04 15.27 26.62c6.64 7.571 14.78 13.51 24.45 17.81 9.66 4.308 20.55 6.457 32.64 6.457 8.11 0 15.96-1.219 23.57-3.672 7.6-2.445 14.46-6.051 20.58-10.8 6.12-4.758 11.17-10.62 15.15-17.6 3.98-6.981 6.42-15 7.3-24.05h-33.18c-2.07 8.902-6.06 15.59-11.96 20.04-5.9 4.457-13.04 6.683-21.46 6.683-7.81 0-14.46-1.523-19.91-4.562-5.46-3.047-9.89-7.129-13.28-12.25s-5.87-10.95-7.42-17.48c-1.54-6.536-2.31-13.29-2.31-20.27 0-6.68 0.77-13.17 2.31-19.48 1.55-6.312 4.03-12 7.42-17.04 3.39-5.046 7.82-9.089 13.28-12.13 5.45-3.047 12.1-4.567 19.91-4.567 11.51 0 20.39 2.93 26.67 8.793 6.26 5.867 9.91 14.36 10.95 25.5h-34.97v26.06h66.39v-85.96h-22.13l-3.53 18.04c-6.2-8.024-13.07-13.62-20.59-16.82"/>
   </g>
   <g>
    <path d="m1116 315.2s-328.1-296.6 95.27-268.1c-140.6 87.87-95.27 268.1-95.27 268.1" fill="#2ba543"/>
    <path d="m1476 89.2-6.98-26.89-53.33 13.84c-43.21-8.719-85.89-15.97-127.7-21.4-28.07-3.648-53.54-6.141-76.86-7.711 60.66-37.91 155.9-58.64 304.4-40.24 504.3 62.5 1019 497.2 1019 497.2s-552.5-298.4-1058-414.8" fill="#2ba543"/>
    <path d="m1481 487.7c140.6-87.86 95.27-268.1 95.27-268.1s328.1 296.6-95.27 268.1" fill="#ed1c24"/>
    <path d="m1456 81.69-298.4 77.45 77.39 298.4 298.4-77.41-77.39-298.4" fill="#fff"/>
   </g>
   <path d="m1456 81.69-298.4 77.45 77.39 298.4 298.4-77.41z" fill="none" stroke="#ed1c24" stroke-miterlimit="10" stroke-width="9.383"/>
   <g fill="#ed1c24">
    <path d="m1157 159.1 375.8 221-77.39-298.4-298.4 77.45"/>
    <path d="m624.5 301.6c-5.922 13.67-9.012 24.68-10.63 31.85-264.4-140.5-456.4-302.7-456.4-302.7s211.2 114.1 492 228.7c-6.238 9.128-19.2 28.74-25.03 42.2"/>
    <path d="m1176 527.9c-161.7-20.04-324.3-78.34-470.8-148.3 0.636-14.55 2.238-38.2 6.3-60.55 2.52-13.87 5.098-24.26 7.321-31.91 155.9 61.03 328.4 119.6 495.9 158.2l7.86 30.32 60.43-15.66c40.73 8.082 80.99 14.86 120.4 19.97 28.07 3.657 53.54 6.149 76.86 7.711-60.64 37.91-155.9 58.64-304.4 40.23"/>
   </g>
   <path d="m625 1133s10.14-1.24 17.53-4.6c7.378-3.38 15.6-8.19 15.6-8.19s2.344-2.62 1.856-4.37c-0.524-1.75-1.821-3.91-1.821-3.91s8.328-5.15 11.48-16.33c3.113-11.14 3.496-20.57 1.922-25.66-1.856-5.95-3.36-4.48 1.855-16.02 4.457-9.91 9.078-15.54 6.734-19.42-2.343-3.88-9.707-4.09-9.707-4.09s-1.05-2.4 0.137-5.99c1.192-3.56 1.715-7.78 1.715-7.78l-4.094-1.91s-4.797-2.31-3.074-4.13c1.672-1.85 5.207-1.54 4.125-4.48-0.84-2.25-3.219-0.42-3.813-4.83-0.597-4.372 1.329-8.986-1.925-13.29-3.219-4.301-6.543-6.961-11.41-6.766-4.828 0.176-34.25 2.676-34.25 2.676s-5.383-3.219-6.368-5.387c-0.941-2.172-2.379-4.461-2.379-4.461s21.26-6.265 30.74-12.34c9.476-6.066 16.04-8.574 20.8-16.93 6.644-11.67 12-22.95 8.222-41.39-3.738-18.42-7.906-35.51-7.769-43.91 0.14-8.395 0.738-15.94-0.414-23.82-1.157-7.946-4.098-27.27-4.098-27.27l-4.059-0.789s0.84-3.082 1.188-5.738c0.316-2.664 2.871-6.282 2.871-6.282s13.57-3.589 25.44-5.789c11.82-2.187 20.22-2.941 30.01-0.644 9.797 2.289 26.32 6.57 26.32 6.57s0.136 4.43 2.55 9.609c2.379 5.247 0 12.82 8.008 13.86 7.981 1.047 13.33 1.469 13.33 1.469l-7.086 14.92s29.1 7.972 37.56 10.32c8.469 2.344 23.93 10.2 24.39 10.2 0.454-0.03 0.387-8.203 0.387-8.203l13.78 1.484s2.332-38.44 4.5-52.23c2.097-13.79 2.992-17.54 4.847-24.26 4.754-17.25 5.594-23.88 5.594-23.88l-28.36-10.46-31.35-10.08-1.727 6.688-16.18-3.692 1.418 35.28s1.156-4.024-9.375-1.887c-10.5 2.168-15.01 0.121-17.22 0.191-2.199 0.07-66.16-20.59-81.23-21.81-15.04-1.227-24.22-3.918-30.18-3.57-5.317 0.332-17.55 2.625-17.55 2.625s-6.125 3.328-8.328 14.03c-2.309 10.67-5.703 26.27-5.703 26.27s-11.44-23.02-15.01-36.14c-3.57-13.12-10.6-36.74-14.52-46.74-3.878-10.04-14.41-32.64-14.41-32.64l-3.601 0.945s1.433-12.35-1.574-21.52c-2.973-9.188-4.336-22.38-4.336-22.38s49.02-49.95 63.36-68.59c14.35-18.65 29.88-41.72 40.8-57.59 10.94-15.85 12.91-21.24 19.77-27.67 6.855-6.441 9.445-8.293 14.41-16.89 5.039-8.55 8.082-9.109 6.789-19.68-1.227-10.58 3.425-89.81 8.39-111.2 4.973-21.41 13.3-59.69 17.39-69.56 4.058-9.863 10.28-32.63 14-40.27 3.711-7.664 15.32-28.84 14-28.37-1.297 0.527 0.695-4.395 0.695-4.395s2.555-3.234 6.059-4.223c3.531-1.011 6.645-0.253 6.645-0.253s0.03-0.106 11.2-9.336c11.12-9.247 19.39-12.09 26.35-14.12 6.993-2 20.68-2.925 26.83-3.613 6.156-0.66 21.2 0.129 25.2 0.434 3.984 0.269 8.914 2.301 14.16 0.801 5.25-1.504 13.82-8.887 13.82-8.887s0.625-7.543-2.207-11.86c-2.801-4.308-3.887-10.01-15.64-17.57-11.76-7.508-15.92-12.23-29.32-16.16-13.4-3.969-19.24-6.367-34.25-6.719-15.04-0.3516-18.79 4.672-30.82 2.871-11.96-1.762-13.36-3.473-27.57-5.18-14.21-1.703-27.4 0.098-27.4 0.098s-4.375 1.949-6.477 4.223c-2.132 2.289-5.382 9.918-5.382 9.918s0.379 11.02 1.679 22.46c1.328 11.45 0.313 20.78 0.313 20.78s1.578 6.988 2.449 5.664c0.84-1.406-2.871 7.156-3.641 9.82-0.8 2.696-4.406 0.61-4.406 0.61s-1.051 7.988-5.426 21.41c-4.367 13.39-9.445 31.7-15.57 46.08-6.117 14.36-6.293 21.43-19.59 44.9-13.3 23.44-21.45 29.91-26.97 48.24-5.532 18.32-10.57 37.95-9.274 49.85 1.328 11.86 2.414 29.94 0.524 38.88-1.883 8.879-3.075 12.46-6.926 16.12-3.852 3.707-31.24 15.73-47.75 23.84-16.48 8.102-29.43 16.52-38.52 22.15-9.062 5.652-24.91 19.89-24.91 19.89s-19.91-37.26-31.49-52.3c-11.58-15.04-26.73-30.86-35.02-40.26-8.29-9.453-14.9-21.14-22.32-30.15-7.39-9.031-12.49-15.91-20.09-18.29-7.625-2.371-19.91-0.152-27.71 4.106-7.805 4.273-60.88 39.76-73.82 47.73-12.98 7.989-63.08 40.72-81.73 50.23-18.64 9.519-32.15 14.88-43.52 18.38-11.34 3.515-21.66 3.883-21.66 3.883l-0.563 4.441s-0.398-2.066-5.031-4.062c-3.867-1.645-7.84-4.09-12.32-2.969-4.043 0.996-8.012 3.078-20.79 3.551-12.8 0.437-26.97 3.168-36.7 3.515-9.692 0.348-13.54 0.942-25.51 0.03-11.93-0.871-7.938-0.132-20.78-1.007-12.84-0.84-16.82-1.16-19.77 2.937-2.973 4.074 1.785 13.61 1.785 13.61s6.02 6.855 22.57 12.91c16.58 6.015 27.32 10.06 43.32 12.56 16.02 2.52 27.88 6.367 34.21 9.727 4.954 2.621 6.684 9.34 13.82 14.55 5.914 4.339 6.332 7.457 16.44 10.97 8.445 2.918 13.05 6.137 18.02-2.418 5-8.586 12.55-19.89 15.42-25.31 2.907-5.406 2.907-5.406 2.907-5.406l6.156-1.098s2.594-1.438 19.52-9.984c16.93-8.594 17.49-5.059 37.44-15.95 19.91-10.88 10.25-9.652 30.4-15.22 20.12-5.593 37.33-6.222 49.54-10.2 12.21-3.992 16.06-7.66 25.99-14.64 9.911-6.996 12.04-8.813 18.2-9.934 6.129-1.086 9.273 0.102 12.63 7.504 3.359 7.363 14.87 68.38 18.44 81.52 3.535 13.12 10.43 32.77 10.53 34.97 0.07 2.203-8.816 13.12-10.64 24.25-1.782 11.1-2.899 41.65 0.949 50.34 3.848 8.711 6.398 17.44 9.238 23.09 2.863 5.648 9.024 16.9 9.024 16.9l-11.07 3.914s9.95 14.24 14.32 25.12c4.343 10.9 18.05 35.58 19.35 59.43 1.332 23.81 4.199 42.7 8.711 57.56 4.551 14.87 8.852 36.37 9.414 39.88 0.563 3.519 2.344 15.84 2.344 15.84s-23.2-5.813-32.12-8.118c-8.922-2.343-10.74-1.91-18.3-3.847-7.594-1.949-23.12-5.602-23.12-5.602l-0.215 6.524s-5.316-0.262-12.42-1.309c-7.105-1.082-10.74-2.707-10.74-2.707s0.105-10.17-7.734-31.55c-7.836-21.38-13.05-30.47-17.62-47.97-4.625-17.51-6.883-26-6.883-38.7 0-24.31-0.59-27.95 4.476-34.32 5.047-6.387 4.328-7.5 7.27-12 2.933-4.547 4.644-5.035 4.051-9.446-0.555-4.39 0.632-9.515 0.632-9.515l8.571-1.504-7.172-31.47-68.21 10.58 10.08 31.35 5.594-0.766s-2.743 6.348 0.547 12.87c3.355 6.512 6.05 7.282 5.558 18.79-0.488 11.5 2.067 8.328 0.281 32.25-1.785 23.94-2.132 51.79 2.067 69.31 4.164 17.51 8.988 40.76 12.8 48.57 3.813 7.817 4.125 16.65 10.11 23.05 5.98 6.442 5.008 4.254 14.49 9.656 9.477 5.395 35.93 16.38 35.93 16.38l0.703 2.375s30.44 10.22 42.16 16.41c11.72 6.192 16.9 6.442 26.87 12.7 9.516 5.98 18.12 14.38 31.94 18.34 17.98 5.035 26.49 5.488 33.38 6.679 11.9 2.032 20.5 4.164 20.5 4.164s9.726 0.524 11.51 0.907c1.789 0.386 7.071-0.696 10.29 3.164 3.254 3.875 4.688 6.918 6.684 13.92 2.027 7 1.328 0.38-0.176 7.06-1.543 6.69-5.39 4.64-8.5 10.33-4.183 7.66-5.355 10.51-3.922 25.92 1.469 15.41-0.14 20.33 3.848 33 4.024 12.68 3.434 20.65 13.51 31.35 10.11 10.66 11.3 18.57 28.62 21.05 17.32 2.46 17.32 2.46 23.52 2.68 6.191 0.21 16.23-2.8 16.23-2.8" fill="#3871c1"/>
  </g>
 </g>
</svg>
