<?xml version="1.0" encoding="UTF-8"?>
<svg width="12.73mm" height="13.48mm" version="1.1" viewBox="0 0 12.73 13.48" xmlns="http://www.w3.org/2000/svg"><g transform="translate(-26.34 -31.03)" fill-opacity=".5718" stroke-width="0"><rect x="26.34" y="31.03" width="12.73" height="13.48" fill="#cd5050" fill-rule="evenodd" opacity=".002339" style="paint-order:stroke fill markers"/><path transform="scale(.9909 1.009)" d="m34.43 38.95q0.4462 0.3074 0.8229 0.4495l-0.1883 0.4462q-0.5223-0.1884-1.041-0.5949-0.5387 0.3007-1.19 0.3007-0.6578 0-1.193-0.3173t-0.8263-0.8924q-0.2875-0.5751-0.2875-1.296 0-0.7172 0.2908-1.306 0.2909-0.5884 0.8263-0.8957 0.5387-0.3074 1.203-0.3074 0.6709 0 1.21 0.3206 0.5387 0.3173 0.8197 0.8924 0.2842 0.5718 0.2842 1.292 0 0.5982-0.1818 1.078-0.1818 0.4759-0.5486 0.8296zm-1.411-0.8197q0.5552 0.1553 0.9155 0.4627 0.5652-0.5156 0.5652-1.55 0-0.5883-0.2016-1.028-0.1984-0.4396-0.5851-0.6809-0.3834-0.2446-0.8626-0.2446-0.7172 0-1.19 0.4925-0.4726 0.4892-0.4726 1.464 0 0.9453 0.466 1.451 0.4694 0.5057 1.196 0.5057 0.3437 0 0.6478-0.1289-0.3008-0.195-0.6346-0.2777z" fill="#d9d9d9" aria-label="Q"/></g></svg>
