<?xml version="1.0" encoding="UTF-8"?>
<svg width="12.73mm" height="13.48mm" version="1.1" viewBox="0 0 12.73 13.48" xmlns="http://www.w3.org/2000/svg"><g transform="translate(-26.34 -31.03)" stroke-width="0"><rect x="26.34" y="31.03" width="12.73" height="13.48" opacity="0" style="paint-order:stroke fill markers"/><g fill-rule="evenodd"><circle cx="31.8" cy="37.66" r=".6"/><circle cx="34.61" cy="40.63" r=".6"/><circle cx="36.2" cy="41.68" r=".6"/><circle cx="34.08" cy="35.33" r=".6"/><circle cx="27.99" cy="32.16" r=".6"/><circle cx="31.43" cy="33.75" r=".6"/><circle cx="28.52" cy="36.39" r=".6"/><circle cx="29.85" cy="40.36" r=".6"/><circle cx="35.14" cy="37.98" r=".6"/><circle cx="35.67" cy="33.22" r=".6"/><circle cx="37.78" cy="36.13" r=".6"/><circle cx="38.31" cy="39.57" r=".6"/><circle cx="35.61" cy="43.76" r=".6"/><circle cx="38.05" cy="42.21" r=".6"/><circle cx="32.49" cy="41.68" r=".6"/><circle cx="28.79" cy="43.8" r=".6"/><circle cx="26.94" cy="38.62" r=".6"/><circle cx="27.73" cy="41.68" r=".6"/><circle cx="38.31" cy="32.95" r=".6"/><circle cx="33.29" cy="31.63" r=".6"/></g></g></svg>
